<svg width="4" height="5" viewBox="0 0 4 5" fill="none" xmlns="http://www.w3.org/2000/svg">
<path d="M0.161004 1.30828L0.128636 0.995716C0.114931 0.863369 0.211961 0.729785 0.345038 0.69779L3.1096 0.0174049C3.24332 -0.0154689 3.36251 0.0649566 3.37543 0.196775L3.65886 2.93383C3.67257 3.06618 3.57554 3.19976 3.44246 3.23176L3.12667 3.3094C2.99153 3.34262 2.87126 3.25885 2.86025 3.12439L2.72926 1.45797L0.894637 3.98375C0.809736 4.10063 0.657528 4.13805 0.553236 4.06768L0.302307 3.89836C0.198015 3.82799 0.182415 3.67734 0.267316 3.56045L2.10194 1.03468L0.432521 1.48625C0.297036 1.52317 0.174216 1.44292 0.161004 1.30828Z" fill="#F4F9FE"/>
</svg>
